<?xml version="1.0" encoding="utf-8"?>
<!-- Generator: Adobe Illustrator 19.0.1, SVG Export Plug-In . SVG Version: 6.00 Build 0)  -->
<svg version="1.1" id="Layer_1" xmlns="http://www.w3.org/2000/svg" xmlns:xlink="http://www.w3.org/1999/xlink" x="0px" y="0px"
	 width="90px" height="83px" viewBox="-252 379.9 90 83" style="enable-background:new -252 379.9 90 83;" xml:space="preserve">
<style type="text/css">
	.st0{fill:#13425F;}
	.st1{fill:#10C0E7;}
	.st2{fill:#FFFFFF;}
	.st3{fill:#ACB3BA;}
	.st4{fill:#CED5E0;}
	.st5{fill:none;}
	.st6{fill:#54C0EB;}
	.st7{font-family:'OpenSans-Extrabold';}
	.st8{font-size:5.9846px;}
</style>
<g id="_x35__1_">
	<path id="bg5" class="st0" d="M-201.5,383c21.8,0,39.5,17.7,39.5,39.5s-17.7,39.5-39.5,39.5s-39.5-17.7-39.5-39.5
		S-223.3,383-201.5,383z"/>
	<path id="bg5_1_" class="st1" d="M-237,379.9c8.3,0,15,6.7,15,15c0,8.3-6.7,15-15,15s-15-6.7-15-15
		C-252,386.6-245.3,379.9-237,379.9z"/>
	<path id="_x35_" class="st2" d="M-234.4,389h-6.5l-1.2,6.8l1.8,0.1c0.5-0.8,1.2-1.1,2.1-1.1c1.5,0,2.4,1,2.4,2.6
		c0,1.7-0.8,2.7-2.3,2.7c-1.3,0-2.2-0.8-2.3-2.1h-2c0.1,2.3,1.8,3.8,4.3,3.8c2.6,0,4.5-1.9,4.5-4.5c0-2.5-1.6-4.1-3.9-4.1
		c-0.9,0-1.7,0.2-2.4,0.9l0.6-3.2h5V389z"/>
</g>
<polygon class="st3" points="-209.4,405.3 -209.4,413.6 -217.8,413.6 -217.8,450 -179.9,450 -179.9,405.3 "/>
<polygon class="st2" points="-212.5,446.6 -212.5,438.2 -220.9,438.2 -220.9,401.8 -183,401.8 -183,446.6 "/>
<g>
	<polygon class="st4" points="-212.5,446.6 -220.9,438.2 -212.5,438.2 	"/>
	<rect x="-215.3" y="419.5" class="st4" width="26.8" height="1.6"/>
	<rect x="-215.3" y="423.7" class="st4" width="26.8" height="1.6"/>
	<rect x="-215.3" y="428" class="st4" width="26.8" height="1.6"/>
	<rect x="-215.3" y="432.2" class="st4" width="15.9" height="1.6"/>
</g>
<rect x="-215.3" y="408" class="st5" width="48.1" height="8.1"/>
<text transform="matrix(1 0 0 1 -215.3185 412.5455)" class="st6 st7 st8">REVIEWS</text>
</svg>
